<svg version="1.2" xmlns="http://www.w3.org/2000/svg" viewBox="0 0 32 32" width="32" height="32">
	<title>New Project</title>
	<style>
		.s0 { fill: #000000 } 
	</style>
	<path id="Background" class="s0" d="m16 32c-8.8 0-16-7.2-16-16c0-8.8 7.2-16 16-16c8.8 0 16 7.2 16 16c0 8.8-7.2 16-16 16z" />
	<path id="J" fill="#ffffff" aria-label="J"  d="m28.6 6.84q-0.05-0.1-0.11-0.31q-0.31-0.31-0.8-0.42q-0.29-0.08-0.57-0.1q-0.29-0.05-0.63-0.11q-0.67-0.07-1.38-0.07h-1.3q-0.46 0-1.01 0.07q-0.52 0.06-1.09 0.19q-0.57 0.13-1.15 0.33q-0.54 0.19-1.14 0.42q-1.14 0.49-2.24 1.2q-0.52 0.36-1.01 0.75q-0.47 0.39-0.88 0.83q-0.78 0.83-1.33 1.9q-0.49 1.12-0.49 2.18q0 0.5 0.23 1.04q0.1 0.26 0.23 0.5q0.16 0.23 0.34 0.44q0.37 0.44 0.86 0.73q0.52 0.26 1.01 0.26q0.55 0 1.02-0.21q0.47-0.26 0.7-0.6q0.26-0.31 0.44-0.86q0.16-0.46 0.16-1.01q0-0.23-0.21-0.57q-0.21-0.29-0.57-0.29q0 0.13 0 0.26q0.02 0.13 0.05 0.26q0.03 0.13 0.03 0.26q0.02 0.13 0.02 0.26q0 0.96-0.39 1.38q-0.34 0.44-1.25 0.44q-0.75 0-1.3-0.47q-0.52-0.46-0.52-1.35q0-0.67 0.42-1.56q0.21-0.44 0.47-0.83q0.26-0.42 0.54-0.81q0.32-0.41 0.63-0.75q0.34-0.36 0.7-0.7q0.34-0.34 0.65-0.57q0.34-0.24 0.62-0.42q0.47-0.26 0.89-0.47q0.44-0.23 0.83-0.44q0.75-0.36 1.66-0.65q0.76-0.26 1.75-0.42q0.46-0.07 0.96-0.1q0.52-0.03 1.12-0.03q0.28 0 0.49 0.03q0.23 0 0.44 0.03q0.39 0.07 0.63 0.26q0.02 0.1 0.02 0.28q0.05 0.13-0.08 0.26q-1.01 0.16-1.82 0.7q-0.44 0.26-0.85 0.6q-0.42 0.34-0.86 0.73q-0.91 0.83-1.48 1.64q-0.29 0.41-0.55 0.86q-0.26 0.41-0.49 0.85q-0.21 0.45-0.42 0.91q-0.21 0.45-0.42 0.94q-0.2 0.49-0.41 1.01q-0.21 0.5-0.44 1.04q-0.24 0.52-0.5 1.1q-0.23 0.57-0.52 1.17q-0.28 0.62-0.57 1.27q-0.29 0.62-0.62 1.25q-0.65 1.32-1.41 2.47q-0.36 0.6-0.78 1.14q-0.39 0.52-0.83 0.99q-0.44 0.47-0.88 0.86q-0.45 0.36-0.94 0.65q-0.96 0.57-2.05 0.57q-0.21 0-0.47-0.03q-0.26-0.05-0.57-0.1q-0.65-0.13-1.3-0.39q-0.68-0.23-1.36-0.6q-0.33-0.21-0.65-0.39q-0.28-0.21-0.57-0.44q-0.52-0.42-0.86-0.99q-0.33-0.52-0.33-1.14q0.05-0.94 0.44-1.48q0.21-0.29 0.47-0.5q0.26-0.23 0.59-0.41q0.65-0.34 1.41-0.45q0.39-0.07 0.75-0.1q0.39-0.03 0.76-0.03q0.59 0 1.32 0.19q0.42 0.13 0.78 0.26q0.39 0.13 0.76 0.33q0.78 0.42 1.27 0.94q0.55 0.55 0.55 1.25q0 0.41-0.29 0.78q-0.29 0.36-0.7 0.6q-0.44 0.23-0.89 0.39q-0.23 0.07-0.44 0.1q-0.18 0.03-0.36 0.03q-0.29 0-0.57-0.03q-0.26-0.03-0.52-0.1q-0.29-0.08-0.58-0.16q-0.26-0.08-0.54-0.18q-0.13 0-0.18 0.05v0.23q0 0.16 0.26 0.26q0.13 0.08 0.28 0.13q0.16 0.06 0.34 0.11q0.18 0.05 0.34 0.08q0.18 0.02 0.34 0.07q0.15 0.03 0.26 0.06q0.13 0 0.18 0q0.62 0 1.35-0.13q0.36-0.08 0.65-0.19q0.29-0.1 0.57-0.28q0.5-0.31 0.86-0.86q0.31-0.57 0.29-1.35q0-0.91-0.52-1.56q-0.55-0.65-1.3-1.04q-0.39-0.21-0.81-0.34q-0.39-0.16-0.83-0.26q-0.91-0.16-1.61-0.16q-0.5 0-0.99 0.06q-0.47 0.02-0.91 0.13q-0.44 0.13-0.89 0.28q-0.41 0.16-0.78 0.39q-0.72 0.42-1.22 1.2q-0.47 0.65-0.67 1.77q0 1.17 0.62 2.02q0.29 0.45 0.68 0.81q0.39 0.36 0.83 0.65q0.47 0.29 0.96 0.52q0.49 0.23 1.04 0.36q1.09 0.32 2 0.32q1.51 0 2.86-0.58q1.3-0.59 2.37-1.5q0.52-0.47 0.99-0.99q0.49-0.55 0.93-1.15q0.44-0.59 0.83-1.22q0.39-0.65 0.73-1.3q0.37-0.67 0.68-1.3q0.31-0.65 0.6-1.32q0.28-0.65 0.54-1.25q0.26-0.6 0.47-1.15q0.31-0.75 0.57-1.45q0.29-0.7 0.55-1.38q0.26-0.68 0.54-1.27q0.29-0.6 0.6-1.17q0.65-1.1 1.64-2.06q0.49-0.47 1.12-0.88q0.62-0.42 1.38-0.78q0.05-0.03 0.1-0.03q0.08-0.02 0.18-0.08q0.13-0.05 0.24-0.07q0.13-0.03 0.26-0.08q0.13-0.05 0.23-0.08q0.13-0.03 0.26-0.08q0.26-0.08 0.36-0.15q0.16-0.34 0.11-0.55zm-0.69 0q-0.05-0.1-0.1-0.31q-0.31-0.31-0.81-0.42q-0.28-0.08-0.57-0.1q-0.29-0.05-0.62-0.11q-0.68-0.07-1.38-0.07h-1.3q-0.47 0-1.02 0.07q-0.52 0.06-1.09 0.19q-0.57 0.13-1.14 0.33q-0.55 0.19-1.15 0.42q-1.14 0.49-2.23 1.2q-0.52 0.36-1.02 0.75q-0.46 0.39-0.88 0.83q-0.78 0.83-1.33 1.9q-0.49 1.12-0.49 2.18q0 0.5 0.23 1.04q0.11 0.26 0.24 0.5q0.15 0.23 0.34 0.44q0.36 0.44 0.85 0.73q0.52 0.26 1.02 0.26q0.54 0 1.01-0.21q0.47-0.26 0.7-0.6q0.26-0.31 0.45-0.86q0.15-0.46 0.15-1.01q0-0.23-0.21-0.57q-0.2-0.29-0.57-0.29q0 0.13 0 0.26q0.03 0.13 0.05 0.26q0.03 0.13 0.03 0.26q0.03 0.13 0.03 0.26q0 0.96-0.39 1.38q-0.34 0.44-1.25 0.44q-0.76 0-1.3-0.47q-0.52-0.46-0.52-1.35q0-0.67 0.41-1.56q0.21-0.44 0.47-0.83q0.26-0.42 0.55-0.81q0.31-0.41 0.62-0.75q0.34-0.36 0.7-0.7q0.34-0.34 0.65-0.57q0.34-0.24 0.63-0.42q0.47-0.26 0.88-0.47q0.44-0.23 0.83-0.44q0.76-0.36 1.67-0.65q0.75-0.26 1.74-0.42q0.47-0.07 0.96-0.1q0.52-0.03 1.12-0.03q0.29 0 0.49 0.03q0.24 0 0.45 0.03q0.39 0.07 0.62 0.26q0.03 0.1 0.03 0.28q0.05 0.13-0.08 0.26q-1.02 0.16-1.82 0.7q-0.44 0.26-0.86 0.6q-0.42 0.34-0.86 0.73q-0.91 0.83-1.48 1.64q-0.29 0.41-0.55 0.86q-0.26 0.41-0.49 0.85q-0.21 0.45-0.42 0.91q-0.2 0.45-0.41 0.94q-0.21 0.49-0.42 1.01q-0.21 0.5-0.44 1.04q-0.23 0.52-0.49 1.1q-0.24 0.57-0.52 1.17q-0.29 0.62-0.58 1.27q-0.28 0.62-0.62 1.25q-0.65 1.32-1.4 2.47q-0.37 0.6-0.78 1.14q-0.39 0.52-0.84 0.99q-0.44 0.47-0.88 0.86q-0.44 0.36-0.94 0.65q-0.96 0.57-2.05 0.57q-0.21 0-0.47-0.03q-0.26-0.05-0.57-0.1q-0.65-0.13-1.3-0.39q-0.68-0.23-1.35-0.6q-0.34-0.21-0.65-0.39q-0.29-0.21-0.57-0.44q-0.52-0.42-0.86-0.99q-0.34-0.52-0.34-1.14q0.05-0.94 0.44-1.48q0.21-0.29 0.47-0.5q0.26-0.23 0.6-0.41q0.65-0.34 1.4-0.45q0.39-0.07 0.76-0.1q0.39-0.03 0.75-0.03q0.6 0 1.33 0.19q0.41 0.13 0.78 0.26q0.39 0.13 0.75 0.33q0.78 0.42 1.27 0.94q0.55 0.55 0.55 1.25q0 0.41-0.29 0.78q-0.28 0.36-0.7 0.6q-0.44 0.23-0.88 0.39q-0.24 0.07-0.44 0.1q-0.19 0.03-0.37 0.03q-0.28 0-0.57-0.03q-0.26-0.03-0.52-0.1q-0.29-0.08-0.57-0.16q-0.26-0.08-0.55-0.18q-0.13 0-0.18 0.05v0.23q0 0.16 0.26 0.26q0.13 0.08 0.29 0.13q0.15 0.06 0.33 0.11q0.19 0.05 0.34 0.08q0.18 0.02 0.34 0.07q0.16 0.03 0.26 0.06q0.13 0 0.18 0q0.63 0 1.35-0.13q0.37-0.08 0.65-0.19q0.29-0.1 0.58-0.28q0.49-0.31 0.85-0.86q0.32-0.57 0.29-1.35q0-0.91-0.52-1.56q-0.55-0.65-1.3-1.04q-0.39-0.21-0.81-0.34q-0.39-0.16-0.83-0.26q-0.91-0.16-1.61-0.16q-0.49 0-0.99 0.06q-0.47 0.02-0.91 0.13q-0.44 0.13-0.88 0.28q-0.42 0.16-0.78 0.39q-0.73 0.42-1.22 1.2q-0.47 0.65-0.68 1.77q0 1.17 0.62 2.02q0.29 0.45 0.68 0.81q0.39 0.36 0.83 0.65q0.47 0.29 0.96 0.52q0.5 0.23 1.04 0.36q1.1 0.32 2.01 0.32q1.5 0 2.86-0.58q1.3-0.59 2.36-1.5q0.52-0.47 0.99-0.99q0.49-0.55 0.94-1.15q0.44-0.59 0.83-1.22q0.39-0.65 0.73-1.3q0.36-0.67 0.67-1.3q0.31-0.65 0.6-1.32q0.29-0.65 0.55-1.25q0.26-0.6 0.46-1.15q0.32-0.75 0.58-1.45q0.28-0.7 0.54-1.38q0.26-0.68 0.55-1.27q0.28-0.6 0.6-1.17q0.65-1.1 1.63-2.06q0.5-0.47 1.12-0.88q0.63-0.42 1.38-0.78q0.05-0.03 0.1-0.03q0.08-0.02 0.19-0.08q0.13-0.05 0.23-0.07q0.13-0.03 0.26-0.08q0.13-0.05 0.23-0.08q0.13-0.03 0.26-0.08q0.26-0.08 0.37-0.15q0.15-0.34 0.1-0.55z" />
</svg>